# xmcd
#
# Track frame offsets: 
#        150
#        9099
#        18758
#        29413
#        40832
#        51014
#        60746
#        70829
#        80744
#        91091
#        101582
#        111297
#        120177
#        129831
#        140379
#        149570
#        160323
#        170110
#        180861
#        191456
#        203353
#        214487
#        224434
#
# Disc length: 3144 seconds
#
# Revision: 1
# Processed by: cddbd v1.5.2PL0 Copyright (c) Steve Scherf et al.
# Submitted via: ExactAudioCopy v1.3
#
DISCID=370c4617
DTITLE=Speedy West - Travellin from Georgia to West of Samoa
DYEAR=2005
DGENRE=Instrumental
TTITLE0=Georgia Steel Guitar
TTITLE1=Steel Strike
TTITLE2=Bryant's Bounce
TTITLE3=Red Headed Polka
TTITLE4=Railroadin'
TTITLE5=Stainless Steel
TTITLE6=Hub Cap Roll
TTITLE7=Truck Driver's Ride
TTITLE8=Bryant's Shuffle
TTITLE9=Roadside Rag
TTITLE10=Yodelling Guitar
TTITLE11=Midnight Ramble
TTITLE12=Serenade to a Frog
TTITLE13=Hometown Polka
TTITLE14=Speedin' West
TTITLE15=Sunset
TTITLE16=This Ain't the Blues
TTITLE17=Old Joe Clark
TTITLE18=Swingin' on the Strings
TTITLE19=This Is Southland
TTITLE20=Our Paradise
TTITLE21=Stratosphere Boogie
TTITLE22=West of Samoa
EXTD=
EXTT0=
EXTT1=
EXTT2=
EXTT3=
EXTT4=
EXTT5=
EXTT6=
EXTT7=
EXTT8=
EXTT9=
EXTT10=
EXTT11=
EXTT12=
EXTT13=
EXTT14=
EXTT15=
EXTT16=
EXTT17=
EXTT18=
EXTT19=
EXTT20=
EXTT21=
EXTT22=
PLAYORDER=
